<svg height="638" width="720" xmlns="http://www.w3.org/2000/svg">
<rect height="638" fill="#555" width="720"></rect>
<text fill="#7f7" font-family="Courier New" font-size="12" xml:space="preserve">
<tspan x="10" y="26">4 megabytes installed</tspan>
<tspan x="10" y="42"></tspan>
<tspan x="10" y="58">node_modules</tspan>
<tspan x="10" y="74">└─┬ gulp-prompt@0.2.0 </tspan>
<tspan x="10" y="90">  ├─┬ event-stream@3.0.20 </tspan>
<tspan x="10" y="106">  │ ├── duplexer@0.1.1 </tspan>
<tspan x="10" y="122">  │ ├── from@0.1.7 </tspan>
<tspan x="10" y="138">  │ ├── map-stream@0.0.7 </tspan>
<tspan x="10" y="154">  │ ├── pause-stream@0.0.11 </tspan>
<tspan x="10" y="170">  │ ├── split@0.2.10 </tspan>
<tspan x="10" y="186">  │ ├── stream-combiner@0.0.4 </tspan>
<tspan x="10" y="202">  │ └── through@2.3.8 </tspan>
<tspan x="10" y="218">  └─┬ inquirer@0.10.1 </tspan>
<tspan x="10" y="234">    ├── ansi-escapes@1.4.0 </tspan>
<tspan x="10" y="250">    ├── ansi-regex@2.1.1 </tspan>
<tspan x="10" y="266">    ├─┬ chalk@1.1.3 </tspan>
<tspan x="10" y="282">    │ ├── ansi-styles@2.2.1 </tspan>
<tspan x="10" y="298">    │ ├── escape-string-regexp@1.0.5 </tspan>
<tspan x="10" y="314">    │ ├── has-ansi@2.0.0 </tspan>
<tspan x="10" y="330">    │ └── supports-color@2.0.0 </tspan>
<tspan x="10" y="346">    ├─┬ cli-cursor@1.0.2 </tspan>
<tspan x="10" y="362">    │ └─┬ restore-cursor@1.0.1 </tspan>
<tspan x="10" y="378">    │   ├── exit-hook@1.1.1 </tspan>
<tspan x="10" y="394">    │   └── onetime@1.1.0 </tspan>
<tspan x="10" y="410">    ├── cli-width@1.1.1 </tspan>
<tspan x="10" y="426">    ├─┬ figures@1.7.0 </tspan>
<tspan x="10" y="442">    │ └── object-assign@4.1.1 </tspan>
<tspan x="10" y="458">    ├── lodash@3.10.1 </tspan>
<tspan x="10" y="474">    ├─┬ readline2@1.0.1 </tspan>
<tspan x="10" y="490">    │ ├── code-point-at@1.1.0 </tspan>
<tspan x="10" y="506">    │ ├─┬ is-fullwidth-code-point@1.0.0 </tspan>
<tspan x="10" y="522">    │ │ └── number-is-nan@1.0.1 </tspan>
<tspan x="10" y="538">    │ └── mute-stream@0.0.5 </tspan>
<tspan x="10" y="554">    ├─┬ run-async@0.1.0 </tspan>
<tspan x="10" y="570">    │ └─┬ once@1.4.0 </tspan>
<tspan x="10" y="586">    │   └── wrappy@1.0.2 </tspan>
<tspan x="10" y="602">    ├── rx-lite@3.1.2 </tspan>
<tspan x="10" y="618">    └── strip-ansi@3.0.1</tspan>
</text>
</svg>
